<svg width="53" height="53" viewBox="0 0 53 53" fill="none" xmlns="http://www.w3.org/2000/svg">
<g id="insta" clip-path="url(#clip0_1_13)">
<path id="Vector" d="M26.7951 5.56347C33.5909 5.56347 34.3963 5.59352 37.0691 5.71485C39.5535 5.82694 40.894 6.25334 41.7895 6.60925C42.8971 7.02748 43.8958 7.69074 44.7108 8.54943C45.604 9.46347 46.1506 10.3267 46.6082 11.5365C46.9549 12.4494 47.3732 13.8315 47.483 16.361C47.602 19.1043 47.632 19.927 47.632 26.865C47.632 33.8133 47.602 34.6361 47.4818 37.369C47.3732 39.9077 46.956 41.2794 46.6082 42.1934C46.1506 43.4021 45.5948 44.2757 44.7108 45.1805C43.8164 46.0934 42.9717 46.6527 41.7884 47.1207C40.8951 47.4755 39.5431 47.903 37.0691 48.014C34.3859 48.1365 33.5816 48.1665 26.7951 48.1665C19.9981 48.1665 19.1938 48.1365 16.521 48.014C14.0366 47.903 12.6961 47.4755 11.8006 47.1207C10.6929 46.7022 9.6942 46.0385 8.87932 45.1794C7.98492 44.2665 7.43834 43.4021 6.9819 42.1934C6.63407 41.2794 6.21692 39.8973 6.10714 37.3678C5.98812 34.6257 5.95807 33.8029 5.95807 26.8638C5.95807 19.9166 5.98812 19.0939 6.1083 16.361C6.21692 13.8222 6.63407 12.4506 6.9819 11.5365C7.43834 10.3267 7.99532 9.45307 8.87932 8.54943C9.77372 7.63538 10.6184 7.07609 11.8006 6.60925C12.695 6.25334 14.047 5.82694 16.521 5.71485C19.1938 5.59352 19.9992 5.56347 26.7939 5.56347H26.7951ZM26.7951 0.880005C19.8895 0.880005 19.0251 0.910049 16.3119 1.03254C13.609 1.15387 11.7509 1.60107 10.1412 2.24125C8.46216 2.91147 7.04199 3.79547 5.6299 5.24801C4.20856 6.69014 3.34536 8.14267 2.68901 9.84943C2.06385 11.5053 1.6259 13.3947 1.50803 16.1588C1.38785 18.9413 1.35781 19.8242 1.35781 26.8835C1.35781 33.9439 1.38785 34.8279 1.50687 37.6013C1.6259 40.363 2.06385 42.2639 2.68901 43.9094C3.34536 45.6254 4.20972 47.078 5.6299 48.5201C7.04199 49.9634 8.46216 50.8578 10.1319 51.5176C11.7509 52.1578 13.5986 52.6038 16.3026 52.7263C19.0147 52.8488 19.8791 52.8789 26.7847 52.8789C33.6903 52.8789 34.5558 52.8488 37.2679 52.7263C39.9707 52.605 41.8288 52.1578 43.4385 51.5176C45.1083 50.8578 46.5285 49.9634 47.9394 48.5213C49.3503 47.0791 50.2251 45.6254 50.8711 43.9187C51.4962 42.2639 51.9342 40.3746 52.0532 37.6105C52.1722 34.8372 52.2023 33.9543 52.2023 26.8939C52.2023 19.8334 52.1722 18.9506 52.0532 16.1772C51.9342 13.4143 51.4962 11.5146 50.8711 9.86792C50.2447 8.14152 49.3804 6.69014 47.9591 5.24685C46.5493 3.80472 45.1279 2.91032 43.4582 2.25049C41.8392 1.61032 39.9915 1.16427 37.2875 1.04178C34.565 0.910049 33.7018 0.880005 26.7951 0.880005Z" fill="white"/>
<path id="Vector_2" d="M26.7951 13.5264C19.5809 13.5264 13.728 19.5099 13.728 26.8846C13.728 34.2605 19.5809 40.2428 26.7951 40.2428C34.0092 40.2428 39.8609 34.2605 39.8609 26.8846C39.8609 19.5099 34.0092 13.5264 26.7951 13.5264ZM26.7951 35.5501C22.1151 35.5501 18.3191 31.6698 18.3191 26.8846C18.3191 22.1006 22.1151 18.2203 26.7951 18.2203C31.4751 18.2203 35.2711 22.1006 35.2711 26.8846C35.2711 31.6686 31.4751 35.5501 26.7951 35.5501ZM43.4281 12.9983C43.4281 14.7259 42.0576 16.1183 40.3774 16.1183C38.6892 16.1183 37.3268 14.7155 37.3268 12.9983C37.3268 11.2719 38.6984 9.88062 40.3774 9.88062C42.0576 9.88062 43.4281 11.2823 43.4281 12.9983Z" fill="white"/>
</g>
<defs>
<clipPath id="clip0_1_13">
<rect width="52" height="52" fill="white" transform="translate(0.780029 0.880005)"/>
</clipPath>
</defs>
</svg>
