<svg width="52" height="53" viewBox="0 0 52 53" fill="none" xmlns="http://www.w3.org/2000/svg">
<g id="insta" clip-path="url(#clip0_1_153)">
<path id="Vector" d="M26.015 4.71325C32.8108 4.71325 33.6162 4.7433 36.289 4.86463C38.7735 4.97672 40.1139 5.40312 41.0095 5.75903C42.1171 6.17726 43.1157 6.84052 43.9307 7.69921C44.824 8.61325 45.3706 9.47645 45.8282 10.6863C46.1748 11.5992 46.5931 12.9813 46.7029 15.5108C46.8219 18.2541 46.852 19.0768 46.852 26.0148C46.852 32.9631 46.8219 33.7859 46.7018 36.5188C46.5931 39.0575 46.176 40.4292 45.8282 41.3432C45.3706 42.5519 44.8147 43.4255 43.9307 44.3303C43.0363 45.2432 42.1916 45.8025 41.0083 46.2705C40.1151 46.6253 38.7631 47.0528 36.289 47.1637C33.6058 47.2862 32.8016 47.3163 26.015 47.3163C19.218 47.3163 18.4138 47.2862 15.741 47.1637C13.2565 47.0528 11.9161 46.6253 11.0205 46.2705C9.91282 45.852 8.91416 45.1883 8.09927 44.3292C7.20487 43.4163 6.65829 42.5519 6.20185 41.3432C5.85403 40.4292 5.43687 39.0471 5.32709 36.5176C5.20807 33.7755 5.17803 32.9527 5.17803 26.0136C5.17803 19.0664 5.20807 18.2437 5.32825 15.5108C5.43687 12.972 5.85403 11.6004 6.20185 10.6863C6.65829 9.47645 7.21527 8.60285 8.09927 7.69921C8.99367 6.78516 9.83838 6.22587 11.0205 5.75903C11.9149 5.40312 13.2669 4.97672 15.741 4.86463C18.4138 4.7433 19.2192 4.71325 26.0138 4.71325H26.015ZM26.015 0.0297852C19.1094 0.0297852 18.245 0.0598296 15.5318 0.182318C12.829 0.303652 10.9708 0.750852 9.36114 1.39103C7.68211 2.06125 6.26194 2.94525 4.84985 4.39779C3.42851 5.83992 2.56531 7.29245 1.90896 8.99921C1.2838 10.6551 0.845848 12.5445 0.727981 15.3085C0.607803 18.0911 0.577759 18.974 0.577759 26.0333C0.577759 33.0937 0.607803 33.9777 0.726825 36.751C0.845848 39.5128 1.2838 41.4137 1.90896 43.0592C2.56531 44.7752 3.42967 46.2277 4.84985 47.6699C6.26194 49.1132 7.68211 50.0076 9.35189 50.6674C10.9708 51.3076 12.8186 51.7536 15.5226 51.8761C18.2346 51.9986 19.099 52.0286 26.0046 52.0286C32.9102 52.0286 33.7757 51.9986 36.4878 51.8761C39.1907 51.7548 41.0488 51.3076 42.6585 50.6674C44.3283 50.0076 45.7484 49.1132 47.1594 47.671C48.5703 46.2289 49.445 44.7752 50.091 43.0685C50.7162 41.4137 51.1541 39.5244 51.2731 36.7603C51.3922 33.9869 51.4222 33.1041 51.4222 26.0437C51.4222 18.9832 51.3922 18.1004 51.2731 15.327C51.1541 12.5641 50.7162 10.6644 50.091 9.0177C49.4647 7.2913 48.6003 5.83992 47.179 4.39663C45.7692 2.9545 44.3479 2.0601 42.6781 1.40027C41.0592 0.760096 39.2114 0.314052 36.5075 0.191563C33.785 0.0598296 32.9218 0.0297852 26.015 0.0297852Z" fill="#54444F"/>
<path id="Vector_2" d="M26.015 12.6761C18.8009 12.6761 12.948 18.6595 12.948 26.0343C12.948 33.4102 18.8009 39.3925 26.015 39.3925C33.2291 39.3925 39.0809 33.4102 39.0809 26.0343C39.0809 18.6595 33.2291 12.6761 26.015 12.6761ZM26.015 34.6998C21.335 34.6998 17.539 30.8194 17.539 26.0343C17.539 21.2503 21.335 17.3699 26.015 17.3699C30.695 17.3699 34.491 21.2503 34.491 26.0343C34.491 30.8183 30.695 34.6998 26.015 34.6998ZM42.6481 12.148C42.6481 13.8755 41.2776 15.268 39.5974 15.268C37.9091 15.268 36.5467 13.8651 36.5467 12.148C36.5467 10.4216 37.9184 9.03027 39.5974 9.03027C41.2776 9.03027 42.6481 10.432 42.6481 12.148Z" fill="#54444F"/>
</g>
<defs>
<clipPath id="clip0_1_153">
<rect width="52" height="52" fill="white" transform="translate(-1.90735e-05 0.0297852)"/>
</clipPath>
</defs>
</svg>
