<svg width="53" height="53" viewBox="0 0 53 53" fill="none" xmlns="http://www.w3.org/2000/svg">
<g id="telegram" clip-path="url(#clip0_1_162)">
<path id="Vector" fill-rule="evenodd" clip-rule="evenodd" d="M52.19 26.0298C52.19 40.3887 40.5489 52.0298 26.19 52.0298C11.8311 52.0298 0.189987 40.3887 0.189987 26.0298C0.189987 11.6709 11.8311 0.0297852 26.19 0.0297852C40.5489 0.0297852 52.19 11.6709 52.19 26.0298ZM27.1214 19.2236C24.593 20.2751 19.5386 22.4533 11.9593 25.7548C10.7287 26.2447 10.0839 26.7231 10.0249 27.1923C9.92554 27.9827 10.917 28.2947 12.2667 28.7188C12.4493 28.7765 12.6399 28.8366 12.8341 28.9002C14.163 29.3312 15.9471 29.8362 16.8762 29.8558C17.7186 29.8743 18.6581 29.5277 19.6958 28.8147C26.777 24.0341 30.4332 21.6179 30.662 21.5659C30.8238 21.5289 31.0491 21.4827 31.2005 21.6179C31.353 21.7531 31.3391 22.0096 31.3218 22.0778C31.2236 22.4961 27.3351 26.1118 25.321 27.9827C24.6935 28.5674 24.2487 28.9811 24.1574 29.0758C23.954 29.2873 23.746 29.4872 23.5461 29.6802C22.3131 30.8693 21.3887 31.7602 23.5981 33.2162C24.6589 33.9153 25.5094 34.4942 26.3564 35.072C27.282 35.7018 28.2053 36.3316 29.4001 37.1139C29.704 37.3126 29.9952 37.5206 30.2783 37.7217C31.3553 38.4901 32.3237 39.18 33.5185 39.0702C34.2142 39.0067 34.9318 38.3538 35.2958 36.4044C36.1567 31.7995 37.8495 21.8236 38.2424 17.7121C38.2661 17.3703 38.2513 17.0268 38.1985 16.6883C38.1639 16.4861 38.0911 16.1972 37.8287 15.9834C37.5167 15.7315 37.036 15.6783 36.8199 15.6829C35.8423 15.6991 34.3424 16.2214 27.1214 19.2236Z" fill="#54444F"/>
</g>
<defs>
<clipPath id="clip0_1_162">
<rect width="52" height="52" fill="white" transform="translate(0.189987 0.0297852)"/>
</clipPath>
</defs>
</svg>
