<svg width="53" height="53" viewBox="0 0 53 53" fill="none" xmlns="http://www.w3.org/2000/svg">
<g id="telegram" clip-path="url(#clip0_1_20)">
<path id="Vector" fill-rule="evenodd" clip-rule="evenodd" d="M52.97 26.88C52.97 41.2389 41.3289 52.88 26.97 52.88C12.611 52.88 0.969971 41.2389 0.969971 26.88C0.969971 12.5211 12.611 0.880005 26.97 0.880005C41.3289 0.880005 52.97 12.5211 52.97 26.88ZM27.9013 20.0738C25.373 21.1253 20.3186 23.3036 12.7393 26.605C11.5086 27.0949 10.8638 27.5733 10.8049 28.0425C10.7055 28.8329 11.697 29.1449 13.0467 29.569C13.2293 29.6268 13.4199 29.6868 13.6141 29.7504C14.9429 30.1814 16.7271 30.6864 17.6562 30.7061C18.4986 30.7245 19.4381 30.3779 20.4757 29.6649C27.557 24.8844 31.2132 22.4681 31.442 22.4161C31.6038 22.3791 31.8291 22.3329 31.9805 22.4681C32.133 22.6033 32.1191 22.8598 32.1018 22.928C32.0036 23.3463 28.1151 26.9621 26.101 28.8329C25.4735 29.4176 25.0286 29.8313 24.9373 29.9261C24.734 30.1375 24.526 30.3374 24.3261 30.5304C23.0931 31.7195 22.1686 32.6104 24.3781 34.0664C25.4389 34.7655 26.2893 35.3445 27.1364 35.9222C28.062 36.552 28.9853 37.1818 30.1801 37.9641C30.484 38.1628 30.7752 38.3709 31.0583 38.5719C32.1353 39.3404 33.1037 40.0302 34.2985 39.9205C34.9941 39.8569 35.7117 39.204 36.0757 37.2546C36.9366 32.6497 38.6295 22.6738 39.0224 18.5623C39.0461 18.2205 39.0313 17.8771 38.9785 17.5385C38.9438 17.3363 38.871 17.0474 38.6087 16.8336C38.2967 16.5817 37.816 16.5285 37.5999 16.5332C36.6223 16.5493 35.1224 17.0717 27.9013 20.0738Z" fill="white"/>
</g>
<defs>
<clipPath id="clip0_1_20">
<rect width="52" height="52" fill="white" transform="translate(0.969971 0.880005)"/>
</clipPath>
</defs>
</svg>
