<svg width="53" height="53" viewBox="0 0 53 53" fill="none" xmlns="http://www.w3.org/2000/svg">
<g id="tik-tok" clip-path="url(#clip0_1_17)">
<path id="Vector" d="M36.5489 0.880005H27.9793V36.3001C27.9793 40.5202 24.6837 43.9869 20.5826 43.9869C16.4804 43.9869 13.1859 40.5202 13.1859 36.3001C13.1859 32.1551 16.4076 28.7636 20.3619 28.6133V19.7202C11.649 19.8704 4.61858 27.1816 4.61858 36.3001C4.61743 45.496 11.7934 52.88 20.6565 52.88C29.5173 52.88 36.6957 45.4197 36.6957 36.3001V18.1382C39.9747 20.6026 43.9457 21.9734 48.0467 22.0567V13.1636C41.6021 12.9382 36.5489 7.51289 36.5489 0.880005Z" fill="white"/>
</g>
<defs>
<clipPath id="clip0_1_17">
<rect width="52" height="52" fill="white" transform="translate(0.380005 0.880005)"/>
</clipPath>
</defs>
</svg>
