<svg width="53" height="53" viewBox="0 0 53 53" fill="none" xmlns="http://www.w3.org/2000/svg">
<g id="tik-tok" clip-path="url(#clip0_1_158)">
<path id="Vector" d="M36.7589 0.0297852H28.1893V35.4499C28.1893 39.67 24.8936 43.1366 20.7926 43.1366C16.6903 43.1366 13.3959 39.67 13.3959 35.4499C13.3959 31.3049 16.6175 27.9133 20.5719 27.7631V18.87C11.859 19.0202 4.82857 26.3314 4.82857 35.4499C4.82741 44.6458 12.0034 52.0298 20.8665 52.0298C29.7273 52.0298 36.9056 44.5695 36.9056 35.4499V17.288C40.1847 19.7524 44.1557 21.1232 48.2567 21.2065V12.3133C41.8121 12.088 36.7589 6.66267 36.7589 0.0297852Z" fill="#54444F"/>
</g>
<defs>
<clipPath id="clip0_1_158">
<rect width="52" height="52" fill="white" transform="translate(0.589989 0.0297852)"/>
</clipPath>
</defs>
</svg>
