<svg width="53" height="53" viewBox="0 0 53 53" fill="none" xmlns="http://www.w3.org/2000/svg">
<g id="twitter" clip-path="url(#clip0_1_7)">
<path id="Vector" d="M16.9488 48.4848C36.5669 48.4848 47.299 31.859 47.299 17.4444C47.299 16.9776 47.2896 16.4989 47.2695 16.0321C49.3646 14.4797 51.1663 12.5664 52.59 10.3818C50.6496 11.2654 48.5842 11.8435 46.467 12.0955C48.7061 10.7146 50.3719 8.57245 51.1588 6.06229C49.0709 7.32898 46.7794 8.22463 44.3858 8.70956C42.7904 6.96967 40.6603 5.81146 38.3326 5.4182C36.0128 5.03056 33.63 5.43476 31.5678 6.56574C29.4861 7.71104 27.8387 9.50916 26.8796 11.683C25.9086 13.8752 25.6699 16.3219 26.1988 18.6605C21.951 18.4409 17.7994 17.3138 14.0238 15.3549C10.2214 13.38 6.87879 10.6246 4.21466 7.26892C2.85125 9.68102 2.43579 12.5147 3.04939 15.2167C3.65176 17.9051 5.24732 20.2667 7.51666 21.8289C5.81915 21.7731 4.16052 21.3063 2.68303 20.4687V20.6034C2.67845 23.1148 3.5287 25.553 5.09394 27.517C6.63853 29.4577 8.81345 30.7969 11.2418 31.3024C9.67448 31.7412 8.02596 31.8051 6.42939 31.4891C7.10317 33.6451 8.42849 35.5394 10.223 36.9113C11.9978 38.2667 14.1572 39.0232 16.3898 39.0716C12.6366 42.0976 7.96026 43.7468 3.13921 43.7446C2.28702 43.7434 1.43571 43.6901 0.590027 43.585C5.44762 46.7804 11.1344 48.4837 16.9488 48.4848Z" fill="white"/>
</g>
<defs>
<clipPath id="clip0_1_7">
<rect width="52" height="52" fill="white" transform="translate(0.590027 0.880005)"/>
</clipPath>
</defs>
</svg>
