<svg width="53" height="53" viewBox="0 0 53 53" fill="none" xmlns="http://www.w3.org/2000/svg">
<g id="twitter" clip-path="url(#clip0_1_145)">
<path id="Vector" d="M17.1687 47.6347C36.7869 47.6347 47.519 31.0089 47.519 16.5943C47.519 16.1275 47.5095 15.6488 47.4894 15.182C49.5845 13.6296 51.3862 11.7163 52.81 9.53173C50.8696 10.4153 48.8041 10.9934 46.687 11.2454C48.926 9.86448 50.5919 7.72235 51.3788 5.21219C49.2908 6.47888 46.9993 7.37453 44.6058 7.85946C43.0103 6.11957 40.8802 4.96136 38.5525 4.5681C36.2327 4.18046 33.85 4.58466 31.7878 5.71564C29.706 6.86094 28.0586 8.65906 27.0995 10.8329C26.1285 13.0251 25.8898 15.4718 26.4188 17.8104C22.1709 17.5908 18.0194 16.4637 14.2437 14.5048C10.4413 12.5299 7.09875 9.77452 4.43462 6.41883C3.07121 8.83093 2.65574 11.6646 3.26935 14.3666C3.87171 17.055 5.46727 19.4166 7.73662 20.9788C6.03911 20.923 4.38047 20.4562 2.90298 19.6186V19.7533C2.89841 22.2647 3.74866 24.7029 5.31389 26.6669C6.85848 28.6076 9.0334 29.9468 11.4617 30.4523C9.89443 30.8911 8.24591 30.955 6.64935 30.639C7.32312 32.795 8.64845 34.6893 10.443 36.0612C12.2177 37.4166 14.3771 38.1731 16.6097 38.2215C12.8566 41.2475 8.18021 42.8967 3.35916 42.8945C2.50698 42.8933 1.65566 42.84 0.809982 42.7349C5.66757 45.9303 11.3544 47.6336 17.1687 47.6347Z" fill="#54444F"/>
</g>
<defs>
<clipPath id="clip0_1_145">
<rect width="52" height="52" fill="white" transform="translate(0.809982 0.0297852)"/>
</clipPath>
</defs>
</svg>
