<svg width="53" height="53" viewBox="0 0 53 53" fill="none" xmlns="http://www.w3.org/2000/svg">
<g id="youtube" clip-path="url(#clip0_1_10)">
<path id="Vector" d="M51.6721 16.2388C51.6721 16.2388 51.1646 12.5676 49.6004 10.9566C47.6202 8.83603 45.4061 8.82563 44.39 8.70083C37.1183 8.16003 26.2004 8.16003 26.2004 8.16003H26.1796C26.1796 8.16003 15.2617 8.16003 7.99 8.70083C6.97392 8.82563 4.7608 8.83603 2.7796 10.9576C1.21544 12.5676 0.718322 16.2377 0.718322 16.2377C0.718322 16.2377 0.190002 20.5537 0.190002 24.8572V28.8924C0.190002 33.196 0.707922 37.5109 0.707922 37.5109C0.707922 37.5109 1.21544 41.1821 2.7692 42.7931C4.7504 44.9147 7.3504 44.8419 8.50792 45.0707C12.6721 45.4752 26.19 45.6 26.19 45.6C26.19 45.6 37.1183 45.5792 44.39 45.0488C45.4061 44.924 47.6192 44.9136 49.6004 42.792C51.1646 41.1811 51.6721 37.5109 51.6721 37.5109C51.6721 37.5109 52.19 33.2064 52.19 28.8914V24.8572C52.19 20.5537 51.6721 16.2388 51.6721 16.2388ZM20.8174 33.7888V18.8273L34.8636 26.334L20.8174 33.7888Z" fill="white"/>
</g>
<defs>
<clipPath id="clip0_1_10">
<rect width="52" height="52" fill="white" transform="translate(0.190002 0.880005)"/>
</clipPath>
</defs>
</svg>
